<?xml version="1.0" encoding="utf-8"?>
<svg viewBox="-0.5 -0.5 512 512" width="512" height="512" xmlns="http://www.w3.org/2000/svg">
  <path style="opacity: 0.992; fill: rgb(34, 197, 94);" d="M 385.5,-0.5 C 394.167,-0.5 402.833,-0.5 411.5,-0.5C 464.616,8.4488 496.116,39.4488 506,92.5C 507.75,110.168 506.084,127.501 501,144.5C 496.485,158.188 491.985,171.855 487.5,185.5C 488.873,185.343 490.207,185.51 491.5,186C 501.295,190.782 507.962,198.282 511.5,208.5C 511.5,213.833 511.5,219.167 511.5,224.5C 504.233,243.974 490.233,251.808 469.5,248C 466.246,246.973 463.246,245.473 460.5,243.5C 451.333,259.171 441.667,274.504 431.5,289.5C 443.96,303.171 445.793,318.171 437,334.5C 427.764,345.802 415.93,349.969 401.5,347C 397.408,345.483 393.408,344.149 389.5,343C 363.046,372.634 333.712,398.8 301.5,421.5C 308.977,440.233 304.31,455.067 287.5,466C 271.652,472.432 257.986,469.432 246.5,457C 245.5,456.333 244.5,456.333 243.5,457C 223.089,467.706 202.089,477.04 180.5,485C 180.604,497.696 174.938,506.529 163.5,511.5C 159.5,511.5 155.5,511.5 151.5,511.5C 145.015,508.857 139.848,504.524 136,498.5C 83.3309,509.984 42.3309,493.318 13,448.5C 6.36996,436.106 1.86996,423.106 -0.5,409.5C -0.5,399.833 -0.5,390.167 -0.5,380.5C 6.86098,340.622 28.861,311.789 65.5,294C 148.44,273.67 212.94,227.836 259,156.5C 275.736,128.355 288.069,98.3547 296,66.5C 314.304,28.6879 344.137,6.3546 385.5,-0.5 Z"/>
  <g>
    <path style="opacity: 1; fill: rgb(22, 163, 74);" d="M 410.5,82.5 C 413.724,82.2035 416.724,82.8702 419.5,84.5C 434.028,99.5392 437.528,116.873 430,136.5C 427.02,142.291 423.187,147.457 418.5,152C 411.165,154.667 406.832,152.167 405.5,144.5C 406.001,140.502 407.835,137.169 411,134.5C 418.108,120.829 416.775,108.163 407,96.5C 404.264,90.7667 405.431,86.1 410.5,82.5 Z"/>
  </g>
  <g>
    <path style="opacity: 1; fill: rgb(22, 163, 74);" d="M 341.5,128.5 C 352.039,127.915 355.539,132.581 352,142.5C 339.341,156.554 339.341,170.554 352,184.5C 355.167,196 351,200.167 339.5,197C 323.327,178.774 321.16,158.94 333,137.5C 335.396,134.001 338.229,131.001 341.5,128.5 Z"/>
  </g>
  <g>
    <path style="opacity: 1; fill: rgb(22, 163, 74);" d="M 379.5,233.5 C 388,232.335 392,236.002 391.5,244.5C 389.071,266.763 377.071,280.929 355.5,287C 350.051,287.896 344.718,287.563 339.5,286C 335.2,280.933 335.533,276.266 340.5,272C 362.03,270.47 373.53,258.97 375,237.5C 376.397,235.93 377.897,234.596 379.5,233.5 Z"/>
  </g>
  <g>
    <path style="opacity: 1; fill: rgb(22, 163, 74);" d="M 275.5,238.5 C 280.946,237.339 285.113,239.006 288,243.5C 288.009,268.825 275.842,284.992 251.5,292C 246.833,292.667 242.167,292.667 237.5,292C 231.96,286.313 232.294,280.98 238.5,276C 258.878,275.288 269.711,264.788 271,244.5C 272.332,242.34 273.832,240.34 275.5,238.5 Z"/>
  </g>
  <g>
    <path style="opacity: 1; fill: rgb(22, 163, 74);" d="M 276.5,314.5 C 283.408,313.751 287.408,316.751 288.5,323.5C 285.616,350.717 270.616,366.05 243.5,369.5C 235.014,369.225 231.847,364.891 234,356.5C 237.864,352.32 242.697,350.487 248.5,351C 263.408,346.369 270.908,336.202 271,320.5C 272.36,317.977 274.193,315.977 276.5,314.5 Z"/>
  </g>
  <g>
    <path style="opacity: 1; fill: rgb(22, 163, 74);" d="M 153.5,326.5 C 170.914,324.22 185.747,329.22 198,341.5C 200,351.164 196.167,355.331 186.5,354C 171.18,340.002 155.847,340.002 140.5,354C 130.833,355.331 127,351.164 129,341.5C 135.755,334.046 143.921,329.046 153.5,326.5 Z"/>
  </g>
  <g>
    <path style="opacity: 1; fill: rgb(22, 163, 74);" d="M 84.5,407.5 C 86.8568,407.337 89.1902,407.503 91.5,408C 107.25,421.956 122.917,421.956 138.5,408C 147.333,406.833 151.167,410.667 150,419.5C 143.391,427.564 134.891,432.731 124.5,435C 108.19,437.883 94.0238,433.717 82,422.5C 78.2532,416.734 79.0866,411.734 84.5,407.5 Z"/>
  </g>
</svg>